# xmcd
#
# Track frame offsets:
#	190
#	13130
#	25065
#	41642
#	56930
#	74220
#	89282
#	104140
#	128327
#	142310
#	161362
#	177127
#	198175
#	213835
#
# Disc length: 3004
#
# Revision: 3
# Processed by: cddbd v1.5.1PL0 Copyright (c) Steve Scherf et al.
# Submitted via: EasyCD 2.21 - (C) 1996 Greg Leichner
# Normalized: r1:TDELIM( - );r2:TSWAP
#
DISCID=cc0bba0e
DTITLE=Various Artist - Country Friends - Disk 4
DYEAR=1900
DGENRE=Country
TTITLE0=Alan Jackson - Don't Rock the Jukebox
TTITLE1=Marty Stuart - Hillbilly Rock
TTITLE2=Dan Seals - Bop
TTITLE3=Mary Chapin Carpenter - Down at the Twist and Shout
TTITLE4=K. T. Oslin - Come Next Monday
TTITLE5=Priates of the Mississippi - Till I'm Holding You Again
TTITLE6=Marsha Thornton - A Bottle of Wine and Patsy Cline
TTITLE7=The Judds - Love Can Build a Bridge
TTITLE8=Clint Black - A Better Man
TTITLE9=Nancy Griffith - From a Distance
TTITLE10=Doug Stone - I Thought it was You
TTITLE11=Lorrie Morgan - Something in Red
TTITLE12=Ricky Van Shelton - I am a Simple Man
TTITLE13=Steve Earl - Guitar Town
EXTD=
EXTT0=
EXTT1=
EXTT2=
EXTT3=
EXTT4=
EXTT5=
EXTT6=
EXTT7=
EXTT8=
EXTT9=
EXTT10=
EXTT11=
EXTT12=
EXTT13=
PLAYORDER=
